<svg width="43" height="35" viewBox="0 0 43 35" fill="none" xmlns="http://www.w3.org/2000/svg">
<path d="M10.6931 0.224555C9.89482 0.284125 9.16807 0.379438 8.84639 0.468793C8.55449 0.546234 8.25068 0.814301 8.12559 1.10024C8.03623 1.30873 6.11807 8.95756 6.11807 9.11244C6.11807 9.14819 6.01084 9.27328 5.87979 9.38647C5.57002 9.64858 5.39727 9.98813 5.36152 10.417C5.33174 10.703 5.39131 11.0068 5.70703 12.2756L6.08233 13.7887L5.76065 14.4976C5.58193 14.8908 5.42109 15.2244 5.40322 15.2541C5.38535 15.278 5.27813 15.1827 5.1709 15.0397C4.4084 14.021 2.9251 13.7113 1.71582 14.3189C0.673341 14.8431 0.000196738 16.1298 0.131251 17.3689C0.15508 17.5893 0.280177 18.185 0.405275 18.6914C0.536329 19.1977 0.965236 20.8895 1.3584 22.4443C2.54981 27.1563 2.77617 27.9962 2.98467 28.4371C3.55059 29.6463 4.9207 30.2778 6.15977 29.9025C7.22607 29.5748 7.92305 28.7528 8.20303 27.4899C8.25068 27.2993 8.3043 27.1563 8.32813 27.1622C8.346 27.1742 8.57832 27.4601 8.82852 27.8056C9.95439 29.3247 11.9857 31.1237 13.8384 32.2436C17.2994 34.3405 21.1298 35.1208 24.8351 34.4775C27.9506 33.9354 31.0363 32.4342 33.5383 30.2301L34.1221 29.7178L34.3723 29.8191C34.5867 29.9025 34.8727 29.9204 36.3202 29.9204C37.9107 29.9204 38.0478 29.9144 38.5184 29.7833C41.0084 29.1042 42.5572 27.1503 42.6764 24.559C42.724 23.4272 42.4679 22.4383 41.9258 21.646C41.8245 21.4971 41.7411 21.3541 41.7411 21.3244C41.7411 21.2946 41.8364 21.0682 41.9496 20.818C42.2653 20.1389 42.4143 19.436 42.4143 18.6914C42.4083 17.8455 42.2713 17.2378 41.9198 16.517C41.3301 15.3078 40.3948 14.4857 39.0128 13.9734C38.8281 13.9079 38.6673 13.8423 38.6554 13.8364C38.6494 13.8304 38.8043 13.1811 39.0068 12.4007C39.4298 10.7208 39.4596 10.4111 39.2153 9.91664C39.126 9.73198 38.9651 9.50561 38.852 9.4103C38.6554 9.23159 38.6435 9.2018 37.875 6.05053C36.5347 0.581977 36.624 0.885785 36.213 0.605805C35.8496 0.355609 34.5331 0.206684 32.6864 0.200727C31.215 0.19477 30.524 0.25434 29.2016 0.498578C27.9923 0.713031 26.64 1.15981 25.6631 1.64829C24.6266 2.1725 23.4769 3.1435 22.7561 4.10854L22.351 4.64467L22.2318 4.47787C21.8744 3.98344 21.1715 3.19711 20.7783 2.85756C19.2235 1.52319 17.0909 0.671332 14.3983 0.31391C13.5644 0.200727 11.6402 0.15307 10.6931 0.224555ZM14.72 2.12485C17.8772 2.68481 19.9205 4.00131 21.5766 6.52709C22.0114 7.19428 22.1782 7.34916 22.3927 7.28364C22.5952 7.21811 22.7263 7.08705 23.0182 6.62836C23.739 5.5144 24.7278 4.44213 25.6273 3.81069C26.9736 2.85756 28.8382 2.22016 30.8993 2.00571C31.5963 1.93422 34.1697 1.96996 34.7118 2.05932L34.9799 2.10102L35.2301 3.17328C35.3611 3.76303 35.4684 4.25746 35.4505 4.26938C35.4386 4.28129 34.9918 4.25746 34.4616 4.21577C33.1034 4.10854 30.8814 4.16215 29.8271 4.32895C26.6639 4.81743 24.5074 5.90161 22.8931 7.81381C22.6012 8.15932 22.345 8.44526 22.3271 8.44526C22.3093 8.44526 22.1961 8.3142 22.0829 8.15932C21.9697 8.01039 21.6063 7.61127 21.2728 7.28364C20.0575 6.05649 18.3062 5.13911 16.1974 4.60893C14.6962 4.23959 14.1839 4.18598 12.0155 4.19194C10.9492 4.19789 9.90078 4.22768 9.68037 4.25746C9.17998 4.32895 9.1919 4.40639 9.53145 3.08393L9.78164 2.10102L10.3773 2.02954C11.3483 1.91635 13.8563 1.96996 14.72 2.12485ZM14.0052 5.56205C15.834 5.76459 17.7104 6.3603 19.0627 7.17045C20.0635 7.77807 21.1953 8.79672 21.8446 9.69028C22.2854 10.2979 22.3569 10.2919 22.9645 9.49965C23.8938 8.30229 25.0555 7.33725 26.2767 6.75346C28.314 5.78246 31.0423 5.31782 33.8063 5.46674C34.7476 5.52036 35.7841 5.61567 35.8139 5.65737C35.8198 5.66928 35.8675 5.85395 35.9211 6.0684C35.9747 6.28285 36.0402 6.50922 36.0581 6.56879C36.0998 6.67006 36.07 6.67602 35.5994 6.63432C32.5077 6.37221 30.2917 6.56284 28.1293 7.28959C27.3787 7.53979 26.5745 7.93295 26.4613 8.11166C26.3362 8.30229 26.3839 8.52866 26.5805 8.65971C26.7115 8.74907 26.7651 8.73715 27.5455 8.481C28.4629 8.18315 29.8747 7.89125 30.8636 7.79594C32.2337 7.65893 34.3127 7.73041 35.9687 7.97465L36.4215 8.04018L36.5525 8.48696C36.624 8.73119 36.6717 8.9516 36.6538 8.96948C36.6359 8.98735 36.1832 8.95756 35.653 8.89799C32.6269 8.59418 31.0185 8.6478 29.0586 9.13032C27.2238 9.58305 25.7644 10.2622 24.2811 11.3582L23.7032 11.7812H22.2974H20.8915L20.403 11.4059C19.4082 10.6494 18.5683 10.1788 17.3828 9.70815C15.3396 8.90991 13.2784 8.59418 11.0147 8.73715C10.4012 8.77885 9.54336 8.84438 9.1085 8.89203C8.66768 8.93969 8.25068 8.98139 8.17324 8.98139H8.03623L8.15537 8.51674C8.2209 8.26655 8.28047 8.05209 8.28643 8.04614C8.29238 8.03422 8.71533 7.97465 9.22168 7.90912C10.3952 7.74828 12.7065 7.68871 13.7133 7.78403C14.9643 7.90317 16.0008 8.12358 17.1922 8.51078L17.9249 8.75502L18.0857 8.64184C18.4074 8.3976 18.2704 8.09379 17.7104 7.80785C17.1624 7.52787 16.0961 7.14662 15.3812 6.96196C13.6061 6.52114 11.6224 6.41391 9.11445 6.63432L8.63193 6.67602L8.75703 6.17563C8.82852 5.90161 8.88809 5.66928 8.88809 5.66332C8.89404 5.65737 9.16211 5.61567 9.48975 5.57993C11.0445 5.40717 12.5397 5.40121 14.0052 5.56205ZM12.9389 10.5362C14.3745 10.6791 15.3634 10.9115 16.7692 11.4357C17.2994 11.6382 17.7283 11.805 17.7224 11.8169C17.7104 11.8229 17.2518 11.7514 16.6918 11.6621C14.2852 11.257 11.7296 11.0783 9.7042 11.1795C8.3043 11.251 7.97666 11.3046 7.86348 11.4595C7.75625 11.6084 7.76221 11.6859 7.95879 12.6688C8.23877 14.0627 8.23281 13.9972 8.07793 13.9734C7.95879 13.9555 7.91113 13.8245 7.60137 12.6152C7.41074 11.8765 7.2499 11.1914 7.2499 11.0902C7.2499 10.7208 7.4584 10.6553 9.00723 10.5302C10.5739 10.4111 11.6998 10.4111 12.9389 10.5362ZM36.0819 10.566C37.1363 10.6613 37.3091 10.7149 37.4461 10.9532C37.5235 11.0961 37.5176 11.1795 37.3448 11.8706C37.2436 12.2875 37.1423 12.645 37.1304 12.6628C37.1125 12.6748 37.0291 12.645 36.9397 12.5914C36.8266 12.5139 36.7968 12.4543 36.8206 12.359C36.8385 12.2875 36.8742 12.079 36.8921 11.8944C36.9278 11.6025 36.9159 11.5489 36.7968 11.4416C36.624 11.2808 36.5108 11.2629 35.099 11.1795C33.2464 11.0783 31.1019 11.1974 28.6952 11.5429C28.0221 11.6382 27.343 11.7455 27.1881 11.7752C26.7234 11.8586 26.9379 11.7455 27.8374 11.4119C30.3155 10.5064 32.7222 10.2622 36.0819 10.566ZM35.7245 13.8781C36.1415 14.0925 36.3262 14.4082 36.3977 15.0456L36.4572 15.5758L37.0887 15.6116C38.2503 15.6771 38.9651 15.963 39.6323 16.6302C40.3174 17.3212 40.5974 18.0539 40.5318 19.019C40.4723 19.853 40.1327 20.5499 39.5132 21.1159C39.3226 21.2886 39.1438 21.4316 39.1141 21.4316C38.989 21.4316 39.0783 21.5388 39.3166 21.6699C39.8885 21.9915 40.3829 22.5992 40.6152 23.2544C40.788 23.7429 40.8297 24.6067 40.7046 25.1845C40.4246 26.5189 39.3881 27.5733 38.012 27.9247C37.6248 28.026 37.3508 28.0439 36.2487 28.0439C35.2599 28.0439 34.8965 28.026 34.7416 27.9605C34.4795 27.8473 34.1995 27.4601 34.1221 27.0848C34.0387 26.7095 34.0327 14.9027 34.1161 14.5572C34.271 13.8662 35.0514 13.5385 35.7245 13.8781ZM13.7609 15.5341C15.2919 15.7545 16.5131 16.8447 16.8109 18.2565C16.942 18.8581 16.936 24.9879 16.8109 25.53C16.5667 26.5546 15.8042 27.4958 14.8689 27.9188C14.3566 28.1511 13.9694 28.2226 13.2784 28.2226C12.1764 28.2226 11.5032 27.9486 10.7586 27.2099C10.2701 26.7214 10.014 26.2806 9.8293 25.6015C9.73398 25.25 9.72207 24.8807 9.72207 21.8188C9.72207 18.4292 9.72207 18.4233 9.85908 17.9765C10.3237 16.4932 11.5271 15.6116 13.2665 15.4865C13.3142 15.4805 13.5405 15.5043 13.7609 15.5341ZM21.9936 15.6294C23.316 15.9511 24.3525 17.2974 24.144 18.4233C24.0964 18.6675 23.8164 19.013 23.5543 19.1441C23.3339 19.2632 22.9407 19.2632 22.6667 19.15C22.4463 19.0607 22.3093 18.9058 22.0055 18.4233C21.7553 18.0301 21.511 17.905 21.0345 17.9289C20.7485 17.9467 20.6234 17.9884 20.4626 18.1076C20.0456 18.4233 20.0575 18.322 20.0575 21.8486C20.0575 25.3334 20.0516 25.256 20.4269 25.5717C20.683 25.7862 20.963 25.8457 21.3145 25.7564C21.6897 25.6551 21.8148 25.5419 22.0591 25.0535C22.3152 24.5471 22.5237 24.3922 23.0062 24.3624C23.316 24.3446 23.3935 24.3624 23.6198 24.5114C24.4479 25.0535 24.3228 26.3461 23.3398 27.329C22.7203 27.9486 22.0174 28.2226 21.0583 28.2226C20.0396 28.2226 19.4082 27.9784 18.7112 27.3112C18.1811 26.8108 17.8475 26.2032 17.7045 25.4466C17.5615 24.7318 17.6032 18.5305 17.7521 18.0361C18.0321 17.1127 18.6397 16.3562 19.432 15.9392C20.2898 15.4924 21.0523 15.4031 21.9936 15.6294ZM29.702 15.7486C30.0772 15.9511 30.4108 16.3383 30.5896 16.7911C30.7027 17.0651 31.1614 18.9237 32.2039 23.2783C32.335 23.8204 32.5554 24.7318 32.6924 25.3037C33.026 26.6619 33.0438 27.192 32.7758 27.5792C32.3111 28.2405 31.3759 28.2703 30.9351 27.6388C30.8397 27.4958 30.6968 27.1325 30.6015 26.8048L30.4406 26.227L28.7727 26.2091L27.0987 26.1972L27.063 26.4176C26.9736 26.8942 26.7711 27.4839 26.6281 27.6805C26.2945 28.1154 25.6035 28.2226 25.127 27.9069C24.841 27.7163 24.5849 27.2337 24.5849 26.8763C24.5849 26.5546 24.6921 26.1019 26.64 18.048C26.9498 16.7732 27.0451 16.5349 27.3906 16.1596C27.8255 15.689 28.2246 15.5282 28.9037 15.552C29.3028 15.5699 29.4339 15.5997 29.702 15.7486ZM8.64981 15.9869C8.75703 16.0703 8.89404 16.2371 8.95361 16.3562C9.13232 16.7255 9.09063 17.1187 8.72129 18.4233C8.54258 19.0786 8.31621 19.8828 8.22686 20.2104C8.14346 20.538 7.98262 21.1278 7.87539 21.5209C7.77412 21.9141 7.39883 23.32 7.04736 24.6484C6.68994 25.9768 6.36231 27.2099 6.31465 27.3886C6.13594 28.026 5.61172 28.3 5.07559 28.0439C4.86709 27.9426 4.78369 27.8533 4.66455 27.609C4.58115 27.4363 4.14033 25.7981 3.68164 23.9633C3.21699 22.1286 2.63916 19.853 2.39492 18.9058C1.90049 16.9936 1.85879 16.6779 2.08516 16.2788C2.3294 15.8439 2.95488 15.6533 3.41953 15.8737C3.80674 16.0524 3.86035 16.2132 4.62881 19.2871C5.02793 20.8776 5.3794 22.2 5.40322 22.2239C5.46279 22.2894 5.48662 22.212 6.29678 19.0905C6.66016 17.6846 6.99375 16.4515 7.03545 16.3502C7.28565 15.7605 8.11367 15.5758 8.64981 15.9869Z" fill="white"/>
</svg>
